<svg xmlns="http://www.w3.org/2000/svg" viewBox="0 0 32 32">
  <!-- Dark navy background -->
  <rect width="32" height="32" rx="7" fill="#0d1b2a"/>
  <!-- Very faint globe rim -->
  <circle cx="16" cy="16" r="12.5" fill="none" stroke="white" stroke-width="0.35" opacity="0.15"/>
  <!-- Back-hemisphere continents (dim) -->
  <circle cx="12.14" cy="4.16" r="0.48" fill="white" opacity="0.18"/>
  <circle cx="11.21" cy="4.50" r="0.48" fill="white" opacity="0.18"/>
  <circle cx="10.77" cy="4.69" r="0.48" fill="white" opacity="0.18"/>
  <circle cx="7.22" cy="7.14" r="0.48" fill="white" opacity="0.18"/>
  <circle cx="6.89" cy="7.47" r="0.48" fill="white" opacity="0.18"/>
  <circle cx="6.58" cy="7.82" r="0.48" fill="white" opacity="0.18"/>
  <circle cx="6.28" cy="8.18" r="0.48" fill="white" opacity="0.18"/>
  <circle cx="6.05" cy="8.46" r="0.48" fill="white" opacity="0.18"/>
  <circle cx="17.81" cy="3.65" r="0.48" fill="white" opacity="0.18"/>
  <circle cx="17.58" cy="3.63" r="0.48" fill="white" opacity="0.18"/>
  <circle cx="16.86" cy="3.57" r="0.48" fill="white" opacity="0.18"/>
  <circle cx="16.12" cy="3.55" r="0.48" fill="white" opacity="0.18"/>
  <circle cx="15.63" cy="3.55" r="0.48" fill="white" opacity="0.18"/>
  <circle cx="14.89" cy="3.59" r="0.48" fill="white" opacity="0.18"/>
  <circle cx="14.72" cy="3.68" r="0.48" fill="white" opacity="0.18"/>
  <circle cx="15.19" cy="3.77" r="0.48" fill="white" opacity="0.18"/>
  <circle cx="15.83" cy="3.84" r="0.48" fill="white" opacity="0.18"/>
  <circle cx="16.54" cy="3.93" r="0.48" fill="white" opacity="0.18"/>
  <circle cx="17.33" cy="4.06" r="0.48" fill="white" opacity="0.18"/>
  <circle cx="19.03" cy="4.43" r="0.48" fill="white" opacity="0.18"/>
  <circle cx="20.57" cy="5.72" r="0.48" fill="white" opacity="0.18"/>
  <circle cx="20.61" cy="5.48" r="0.48" fill="white" opacity="0.18"/>
  <circle cx="20.37" cy="4.87" r="0.48" fill="white" opacity="0.18"/>
  <circle cx="21.39" cy="5.82" r="0.48" fill="white" opacity="0.18"/>
  <circle cx="21.96" cy="6.11" r="0.48" fill="white" opacity="0.18"/>
  <circle cx="22.53" cy="6.43" r="0.48" fill="white" opacity="0.18"/>
  <circle cx="23.11" cy="7.04" r="0.48" fill="white" opacity="0.18"/>
  <circle cx="23.35" cy="7.67" r="0.48" fill="white" opacity="0.18"/>
  <circle cx="23.76" cy="8.40" r="0.48" fill="white" opacity="0.18"/>
  <circle cx="24.66" cy="9.27" r="0.48" fill="white" opacity="0.18"/>
  <circle cx="25.01" cy="9.59" r="0.48" fill="white" opacity="0.18"/>
  <circle cx="25.22" cy="9.77" r="0.48" fill="white" opacity="0.18"/>
  <circle cx="25.80" cy="10.47" r="0.48" fill="white" opacity="0.18"/>
  <circle cx="26.13" cy="11.17" r="0.48" fill="white" opacity="0.18"/>
  <circle cx="26.35" cy="11.56" r="0.48" fill="white" opacity="0.18"/>
  <circle cx="26.57" cy="11.96" r="0.48" fill="white" opacity="0.18"/>
  <circle cx="26.77" cy="12.36" r="0.48" fill="white" opacity="0.18"/>
  <circle cx="26.93" cy="13.07" r="0.48" fill="white" opacity="0.18"/>
  <circle cx="26.98" cy="13.70" r="0.48" fill="white" opacity="0.18"/>
  <circle cx="27.00" cy="14.39" r="0.48" fill="white" opacity="0.18"/>
  <circle cx="26.96" cy="14.80" r="0.48" fill="white" opacity="0.18"/>
  <circle cx="26.04" cy="15.58" r="0.48" fill="white" opacity="0.18"/>
  <circle cx="25.62" cy="15.66" r="0.48" fill="white" opacity="0.18"/>
  <circle cx="27.09" cy="12.99" r="0.48" fill="white" opacity="0.18"/>
  <circle cx="27.15" cy="12.25" r="0.48" fill="white" opacity="0.18"/>
  <circle cx="26.75" cy="10.90" r="0.48" fill="white" opacity="0.18"/>
  <circle cx="26.67" cy="10.12" r="0.48" fill="white" opacity="0.18"/>
  <circle cx="26.37" cy="9.47" r="0.48" fill="white" opacity="0.18"/>
  <circle cx="26.23" cy="9.26" r="0.48" fill="white" opacity="0.18"/>
  <circle cx="27.74" cy="11.82" r="0.48" fill="white" opacity="0.18"/>
  <circle cx="27.49" cy="11.24" r="0.48" fill="white" opacity="0.18"/>
  <circle cx="27.36" cy="10.95" r="0.48" fill="white" opacity="0.18"/>
  <circle cx="27.03" cy="10.32" r="0.48" fill="white" opacity="0.18"/>
  <circle cx="22.96" cy="16.35" r="0.48" fill="white" opacity="0.18"/>
  <circle cx="22.62" cy="16.14" r="0.48" fill="white" opacity="0.18"/>
  <circle cx="22.28" cy="15.94" r="0.48" fill="white" opacity="0.18"/>
  <circle cx="21.52" cy="15.98" r="0.48" fill="white" opacity="0.18"/>
  <circle cx="20.78" cy="15.60" r="0.48" fill="white" opacity="0.18"/>
  <circle cx="20.56" cy="15.79" r="0.48" fill="white" opacity="0.18"/>
  <circle cx="20.13" cy="16.19" r="0.48" fill="white" opacity="0.18"/>
  <circle cx="19.90" cy="16.53" r="0.48" fill="white" opacity="0.18"/>
  <circle cx="19.67" cy="16.88" r="0.48" fill="white" opacity="0.18"/>
  <circle cx="19.43" cy="17.22" r="0.48" fill="white" opacity="0.18"/>
  <circle cx="18.29" cy="18.87" r="0.48" fill="white" opacity="0.18"/>
  <circle cx="18.37" cy="19.30" r="0.48" fill="white" opacity="0.18"/>
  <circle cx="18.44" cy="19.73" r="0.48" fill="white" opacity="0.18"/>
  <circle cx="18.70" cy="20.44" r="0.48" fill="white" opacity="0.18"/>
  <circle cx="19.04" cy="21.01" r="0.48" fill="white" opacity="0.18"/>
  <circle cx="19.80" cy="21.08" r="0.48" fill="white" opacity="0.18"/>
  <circle cx="20.34" cy="20.87" r="0.48" fill="white" opacity="0.18"/>
  <circle cx="22.08" cy="20.15" r="0.48" fill="white" opacity="0.18"/>
  <circle cx="22.53" cy="20.24" r="0.48" fill="white" opacity="0.18"/>
  <circle cx="23.49" cy="19.90" r="0.48" fill="white" opacity="0.18"/>
  <circle cx="24.01" cy="19.48" r="0.48" fill="white" opacity="0.18"/>
  <circle cx="24.52" cy="19.06" r="0.48" fill="white" opacity="0.18"/>
  <circle cx="25.01" cy="18.64" r="0.48" fill="white" opacity="0.18"/>
  <circle cx="24.83" cy="18.43" r="0.48" fill="white" opacity="0.18"/>
  <circle cx="24.65" cy="18.22" r="0.48" fill="white" opacity="0.18"/>
  <circle cx="24.26" cy="17.52" r="0.48" fill="white" opacity="0.18"/>
  <circle cx="23.88" cy="16.98" r="0.48" fill="white" opacity="0.18"/>
  <circle cx="23.59" cy="16.77" r="0.48" fill="white" opacity="0.18"/>
  <!-- Front-hemisphere continents (bright) -->
  <circle cx="12.50" cy="4.02" r="0.48" fill="white" opacity="0.82"/>
  <circle cx="4.50" cy="11.16" r="0.48" fill="white" opacity="0.82"/>
  <circle cx="5.00" cy="10.86" r="0.48" fill="white" opacity="0.82"/>
  <circle cx="5.59" cy="11.10" r="0.48" fill="white" opacity="0.82"/>
  <circle cx="5.68" cy="11.52" r="0.48" fill="white" opacity="0.82"/>
  <circle cx="5.82" cy="11.94" r="0.48" fill="white" opacity="0.82"/>
  <circle cx="6.49" cy="10.90" r="0.48" fill="white" opacity="0.82"/>
  <circle cx="7.13" cy="10.40" r="0.48" fill="white" opacity="0.82"/>
  <circle cx="7.47" cy="10.08" r="0.48" fill="white" opacity="0.82"/>
  <circle cx="7.82" cy="9.76" r="0.48" fill="white" opacity="0.82"/>
  <circle cx="8.18" cy="9.44" r="0.48" fill="white" opacity="0.82"/>
  <circle cx="8.45" cy="9.32" r="0.48" fill="white" opacity="0.82"/>
  <circle cx="9.01" cy="9.08" r="0.48" fill="white" opacity="0.82"/>
  <circle cx="9.86" cy="9.01" r="0.48" fill="white" opacity="0.82"/>
  <circle cx="10.30" cy="8.96" r="0.48" fill="white" opacity="0.82"/>
  <circle cx="10.75" cy="8.91" r="0.48" fill="white" opacity="0.82"/>
  <circle cx="10.88" cy="8.04" r="0.48" fill="white" opacity="0.82"/>
  <circle cx="11.02" cy="7.44" r="0.48" fill="white" opacity="0.82"/>
  <circle cx="11.17" cy="6.87" r="0.48" fill="white" opacity="0.82"/>
  <circle cx="10.88" cy="6.47" r="0.48" fill="white" opacity="0.82"/>
  <circle cx="11.18" cy="6.27" r="0.48" fill="white" opacity="0.82"/>
  <circle cx="11.78" cy="5.88" r="0.48" fill="white" opacity="0.82"/>
  <circle cx="11.98" cy="5.66" r="0.48" fill="white" opacity="0.82"/>
  <circle cx="12.41" cy="5.26" r="0.48" fill="white" opacity="0.82"/>
  <circle cx="12.04" cy="4.91" r="0.48" fill="white" opacity="0.82"/>
  <circle cx="12.97" cy="6.96" r="0.48" fill="white" opacity="0.82"/>
  <circle cx="13.31" cy="6.74" r="0.48" fill="white" opacity="0.82"/>
  <circle cx="13.94" cy="6.32" r="0.48" fill="white" opacity="0.82"/>
  <circle cx="14.68" cy="6.04" r="0.48" fill="white" opacity="0.82"/>
  <circle cx="15.02" cy="5.89" r="0.48" fill="white" opacity="0.82"/>
  <circle cx="15.48" cy="5.51" r="0.48" fill="white" opacity="0.82"/>
  <circle cx="15.74" cy="5.06" r="0.48" fill="white" opacity="0.82"/>
  <circle cx="15.63" cy="4.82" r="0.48" fill="white" opacity="0.82"/>
  <circle cx="14.74" cy="4.52" r="0.48" fill="white" opacity="0.82"/>
  <circle cx="14.16" cy="4.67" r="0.48" fill="white" opacity="0.82"/>
  <circle cx="13.71" cy="5.06" r="0.48" fill="white" opacity="0.82"/>
  <circle cx="13.52" cy="5.28" r="0.48" fill="white" opacity="0.82"/>
  <circle cx="13.20" cy="5.78" r="0.48" fill="white" opacity="0.82"/>
  <circle cx="5.34" cy="15.50" r="0.48" fill="white" opacity="0.82"/>
  <circle cx="5.22" cy="15.82" r="0.48" fill="white" opacity="0.82"/>
  <circle cx="5.01" cy="16.46" r="0.48" fill="white" opacity="0.82"/>
  <circle cx="4.88" cy="16.76" r="0.48" fill="white" opacity="0.82"/>
  <circle cx="4.77" cy="17.07" r="0.48" fill="white" opacity="0.82"/>
  <circle cx="4.65" cy="17.70" r="0.48" fill="white" opacity="0.82"/>
  <circle cx="4.62" cy="18.36" r="0.48" fill="white" opacity="0.82"/>
  <circle cx="4.88" cy="19.01" r="0.48" fill="white" opacity="0.82"/>
  <circle cx="5.18" cy="19.65" r="0.48" fill="white" opacity="0.82"/>
  <circle cx="5.51" cy="20.28" r="0.48" fill="white" opacity="0.82"/>
  <circle cx="5.87" cy="20.90" r="0.48" fill="white" opacity="0.82"/>
  <circle cx="6.26" cy="21.50" r="0.48" fill="white" opacity="0.82"/>
  <circle cx="6.71" cy="21.76" r="0.48" fill="white" opacity="0.82"/>
  <circle cx="7.20" cy="22.01" r="0.48" fill="white" opacity="0.82"/>
  <circle cx="7.71" cy="22.26" r="0.48" fill="white" opacity="0.82"/>
  <circle cx="8.24" cy="22.50" r="0.48" fill="white" opacity="0.82"/>
  <circle cx="8.80" cy="22.73" r="0.48" fill="white" opacity="0.82"/>
  <circle cx="9.38" cy="22.94" r="0.48" fill="white" opacity="0.82"/>
  <circle cx="9.98" cy="23.15" r="0.48" fill="white" opacity="0.82"/>
  <circle cx="10.60" cy="23.35" r="0.48" fill="white" opacity="0.82"/>
  <circle cx="10.32" cy="23.72" r="0.48" fill="white" opacity="0.82"/>
  <circle cx="9.86" cy="24.42" r="0.48" fill="white" opacity="0.82"/>
  <circle cx="9.45" cy="24.79" r="0.48" fill="white" opacity="0.82"/>
  <circle cx="8.99" cy="25.07" r="0.48" fill="white" opacity="0.82"/>
  <circle cx="9.29" cy="25.91" r="0.48" fill="white" opacity="0.82"/>
  <circle cx="9.63" cy="26.34" r="0.48" fill="white" opacity="0.82"/>
  <circle cx="10.01" cy="26.72" r="0.48" fill="white" opacity="0.82"/>
  <circle cx="10.43" cy="27.06" r="0.48" fill="white" opacity="0.82"/>
  <circle cx="10.32" cy="27.02" r="0.48" fill="white" opacity="0.82"/>
  <circle cx="9.17" cy="25.39" r="0.48" fill="white" opacity="0.82"/>
  <circle cx="9.70" cy="25.01" r="0.48" fill="white" opacity="0.82"/>
  <circle cx="10.74" cy="22.91" r="0.48" fill="white" opacity="0.82"/>
  <circle cx="11.09" cy="21.98" r="0.48" fill="white" opacity="0.82"/>
  <circle cx="11.28" cy="21.37" r="0.48" fill="white" opacity="0.82"/>
  <circle cx="11.50" cy="20.73" r="0.48" fill="white" opacity="0.82"/>
  <circle cx="11.74" cy="20.08" r="0.48" fill="white" opacity="0.82"/>
  <circle cx="11.04" cy="19.60" r="0.48" fill="white" opacity="0.82"/>
  <circle cx="10.36" cy="19.10" r="0.48" fill="white" opacity="0.82"/>
  <circle cx="9.71" cy="18.58" r="0.48" fill="white" opacity="0.82"/>
  <circle cx="9.09" cy="18.06" r="0.48" fill="white" opacity="0.82"/>
  <circle cx="8.51" cy="17.52" r="0.48" fill="white" opacity="0.82"/>
  <circle cx="7.91" cy="17.04" r="0.48" fill="white" opacity="0.82"/>
  <circle cx="7.36" cy="16.54" r="0.48" fill="white" opacity="0.82"/>
  <circle cx="6.85" cy="16.04" r="0.48" fill="white" opacity="0.82"/>
  <circle cx="6.30" cy="15.86" r="0.48" fill="white" opacity="0.82"/>
  <circle cx="17.76" cy="11.48" r="0.48" fill="white" opacity="0.82"/>
  <circle cx="17.51" cy="11.36" r="0.48" fill="white" opacity="0.82"/>
  <circle cx="17.06" cy="10.77" r="0.48" fill="white" opacity="0.82"/>
  <circle cx="17.11" cy="10.11" r="0.48" fill="white" opacity="0.82"/>
  <circle cx="17.66" cy="9.52" r="0.48" fill="white" opacity="0.82"/>
  <circle cx="17.92" cy="9.32" r="0.48" fill="white" opacity="0.82"/>
  <circle cx="18.18" cy="8.81" r="0.48" fill="white" opacity="0.82"/>
  <circle cx="18.35" cy="8.44" r="0.48" fill="white" opacity="0.82"/>
  <circle cx="18.40" cy="8.32" r="0.48" fill="white" opacity="0.82"/>
  <circle cx="18.66" cy="7.50" r="0.48" fill="white" opacity="0.82"/>
  <circle cx="18.27" cy="7.37" r="0.48" fill="white" opacity="0.82"/>
  <circle cx="19.00" cy="7.57" r="0.48" fill="white" opacity="0.82"/>
  <circle cx="19.25" cy="7.76" r="0.48" fill="white" opacity="0.82"/>
  <circle cx="19.69" cy="7.70" r="0.48" fill="white" opacity="0.82"/>
  <circle cx="19.90" cy="7.67" r="0.48" fill="white" opacity="0.82"/>
  <circle cx="20.05" cy="6.95" r="0.48" fill="white" opacity="0.82"/>
  <circle cx="19.61" cy="6.32" r="0.48" fill="white" opacity="0.82"/>
  <circle cx="19.09" cy="5.67" r="0.48" fill="white" opacity="0.82"/>
  <circle cx="18.92" cy="5.46" r="0.48" fill="white" opacity="0.82"/>
  <circle cx="18.90" cy="5.71" r="0.48" fill="white" opacity="0.82"/>
  <circle cx="19.38" cy="6.37" r="0.48" fill="white" opacity="0.82"/>
  <circle cx="18.33" cy="9.86" r="0.48" fill="white" opacity="0.82"/>
  <circle cx="18.59" cy="9.91" r="0.48" fill="white" opacity="0.82"/>
  <circle cx="19.13" cy="9.99" r="0.48" fill="white" opacity="0.82"/>
  <circle cx="20.09" cy="10.15" r="0.48" fill="white" opacity="0.82"/>
  <circle cx="20.57" cy="10.21" r="0.48" fill="white" opacity="0.82"/>
  <circle cx="20.69" cy="10.40" r="0.48" fill="white" opacity="0.82"/>
  <circle cx="20.69" cy="11.01" r="0.48" fill="white" opacity="0.82"/>
  <circle cx="20.01" cy="11.14" r="0.48" fill="white" opacity="0.82"/>
  <circle cx="19.47" cy="11.24" r="0.48" fill="white" opacity="0.82"/>
  <circle cx="18.91" cy="11.33" r="0.48" fill="white" opacity="0.82"/>
  <circle cx="21.25" cy="10.93" r="0.48" fill="white" opacity="0.82"/>
  <circle cx="21.74" cy="10.85" r="0.48" fill="white" opacity="0.82"/>
  <circle cx="22.66" cy="10.66" r="0.48" fill="white" opacity="0.82"/>
  <circle cx="23.09" cy="10.55" r="0.48" fill="white" opacity="0.82"/>
  <circle cx="23.87" cy="10.32" r="0.48" fill="white" opacity="0.82"/>
  <circle cx="23.99" cy="10.81" r="0.48" fill="white" opacity="0.82"/>
  <circle cx="24.09" cy="11.30" r="0.48" fill="white" opacity="0.82"/>
  <circle cx="24.17" cy="11.80" r="0.48" fill="white" opacity="0.82"/>
  <circle cx="24.51" cy="12.30" r="0.48" fill="white" opacity="0.82"/>
  <circle cx="24.83" cy="12.81" r="0.48" fill="white" opacity="0.82"/>
  <circle cx="25.13" cy="13.32" r="0.48" fill="white" opacity="0.82"/>
  <circle cx="25.62" cy="13.92" r="0.48" fill="white" opacity="0.82"/>
  <circle cx="26.07" cy="14.52" r="0.48" fill="white" opacity="0.82"/>
  <circle cx="26.48" cy="15.12" r="0.48" fill="white" opacity="0.82"/>
  <circle cx="26.46" cy="16.03" r="0.48" fill="white" opacity="0.82"/>
  <circle cx="26.50" cy="16.90" r="0.48" fill="white" opacity="0.82"/>
  <circle cx="26.48" cy="17.76" r="0.48" fill="white" opacity="0.82"/>
  <circle cx="26.30" cy="18.52" r="0.48" fill="white" opacity="0.82"/>
  <circle cx="26.16" cy="19.38" r="0.48" fill="white" opacity="0.82"/>
  <circle cx="26.09" cy="19.86" r="0.48" fill="white" opacity="0.82"/>
  <circle cx="25.66" cy="21.04" r="0.48" fill="white" opacity="0.82"/>
  <circle cx="25.28" cy="21.74" r="0.48" fill="white" opacity="0.82"/>
  <circle cx="24.86" cy="22.42" r="0.48" fill="white" opacity="0.82"/>
  <circle cx="24.42" cy="23.06" r="0.48" fill="white" opacity="0.82"/>
  <circle cx="23.89" cy="23.66" r="0.48" fill="white" opacity="0.82"/>
  <circle cx="23.35" cy="24.24" r="0.48" fill="white" opacity="0.82"/>
  <circle cx="22.80" cy="24.78" r="0.48" fill="white" opacity="0.82"/>
  <circle cx="22.12" cy="24.54" r="0.48" fill="white" opacity="0.82"/>
  <circle cx="21.67" cy="23.80" r="0.48" fill="white" opacity="0.82"/>
  <circle cx="21.56" cy="23.16" r="0.48" fill="white" opacity="0.82"/>
  <circle cx="21.40" cy="22.47" r="0.48" fill="white" opacity="0.82"/>
  <circle cx="21.51" cy="21.72" r="0.48" fill="white" opacity="0.82"/>
  <circle cx="21.59" cy="20.94" r="0.48" fill="white" opacity="0.82"/>
  <circle cx="21.64" cy="20.13" r="0.48" fill="white" opacity="0.82"/>
  <circle cx="21.18" cy="19.62" r="0.48" fill="white" opacity="0.82"/>
  <circle cx="20.68" cy="19.10" r="0.48" fill="white" opacity="0.82"/>
  <circle cx="20.17" cy="18.57" r="0.48" fill="white" opacity="0.82"/>
  <circle cx="19.64" cy="18.03" r="0.48" fill="white" opacity="0.82"/>
  <circle cx="18.94" cy="18.15" r="0.48" fill="white" opacity="0.82"/>
  <circle cx="18.24" cy="18.26" r="0.48" fill="white" opacity="0.82"/>
  <circle cx="17.52" cy="18.36" r="0.48" fill="white" opacity="0.82"/>
  <circle cx="17.03" cy="17.78" r="0.48" fill="white" opacity="0.82"/>
  <circle cx="16.54" cy="17.20" r="0.48" fill="white" opacity="0.82"/>
  <circle cx="16.05" cy="16.60" r="0.48" fill="white" opacity="0.82"/>
  <circle cx="15.58" cy="16.00" r="0.48" fill="white" opacity="0.82"/>
  <circle cx="15.72" cy="15.27" r="0.48" fill="white" opacity="0.82"/>
  <circle cx="15.86" cy="14.55" r="0.48" fill="white" opacity="0.82"/>
  <circle cx="16.00" cy="13.83" r="0.48" fill="white" opacity="0.82"/>
  <circle cx="16.43" cy="13.19" r="0.48" fill="white" opacity="0.82"/>
  <circle cx="16.84" cy="12.55" r="0.48" fill="white" opacity="0.82"/>
  <circle cx="17.22" cy="11.91" r="0.48" fill="white" opacity="0.82"/>
  <circle cx="15.33" cy="6.56" r="0.48" fill="white" opacity="0.82"/>
  <circle cx="15.91" cy="6.47" r="0.48" fill="white" opacity="0.82"/>
  <circle cx="16.18" cy="6.33" r="0.48" fill="white" opacity="0.82"/>
  <circle cx="17.40" cy="8.80" r="0.48" fill="white" opacity="0.82"/>
  <circle cx="17.40" cy="8.33" r="0.48" fill="white" opacity="0.82"/>
  <circle cx="17.27" cy="7.66" r="0.48" fill="white" opacity="0.82"/>
  <circle cx="17.79" cy="7.68" r="0.48" fill="white" opacity="0.82"/>
  <circle cx="19.76" cy="5.18" r="0.48" fill="white" opacity="0.82"/>
  <circle cx="20.13" cy="4.94" r="0.48" fill="white" opacity="0.82"/>
  <circle cx="20.06" cy="4.31" r="0.48" fill="white" opacity="0.82"/>
  <circle cx="19.64" cy="4.07" r="0.48" fill="white" opacity="0.82"/>
  <circle cx="26.00" cy="8.99" r="0.48" fill="white" opacity="0.82"/>
  <circle cx="25.50" cy="8.54" r="0.48" fill="white" opacity="0.82"/>
  <circle cx="24.88" cy="8.22" r="0.48" fill="white" opacity="0.82"/>
  <circle cx="24.03" cy="7.54" r="0.48" fill="white" opacity="0.82"/>
  <circle cx="22.34" cy="6.16" r="0.48" fill="white" opacity="0.82"/>
  <circle cx="21.42" cy="5.59" r="0.48" fill="white" opacity="0.82"/>
  <circle cx="27.81" cy="12.42" r="0.48" fill="white" opacity="0.82"/>
  <circle cx="28.06" cy="13.01" r="0.48" fill="white" opacity="0.82"/>
</svg>
